<?xml version="1.0" encoding="utf-8"?>
<!-- Generator: Adobe Illustrator 16.0.0, SVG Export Plug-In . SVG Version: 6.00 Build 0)  -->
<!DOCTYPE svg PUBLIC "-//W3C//DTD SVG 1.1//EN" "http://www.w3.org/Graphics/SVG/1.1/DTD/svg11.dtd">
<svg version="1.1" id="Layer_1" xmlns="http://www.w3.org/2000/svg" xmlns:xlink="http://www.w3.org/1999/xlink" x="0px" y="0px"
	 width="283.46px" height="283.46px" viewBox="0 0 283.46 283.46" enable-background="new 0 0 283.46 283.46" xml:space="preserve">
	<circle fill="#333333" cx="141.73" cy="141.73" r="141.73"/>
	<circle fill="#F4F4F4" cx="141.73" cy="141.73" r="58"/>
	<g>
		<path fill-rule="evenodd" clip-rule="evenodd" fill="#FFD166" d="M214.188,31.614c-0.024,6.053-6.371,9.76-11.688,6.752
			c-3.605-2.04-7.295-3.889-11.14-5.43c-7.637-3.062-15.552-5.122-23.642-6.549c-5.631-0.994-11.305-1.651-17.009-1.994
			c-5.932-0.356-11.866-0.398-17.807-0.091c-6.806,0.353-13.559,1.1-20.222,2.539c-2.458,0.531-4.889,1.201-7.32,1.851
			c-1.491,0.398-2.96,0.449-4.445,0.015c-3.251-0.951-5.492-3.864-5.589-7.274c-0.094-3.313,1.95-6.394,5.162-7.452
			c2.352-0.774,4.765-1.384,7.179-1.942c5.978-1.381,12.037-2.235,18.146-2.793c6.486-0.592,12.984-0.782,19.487-0.597
			c16.021,0.459,31.729,2.802,46.932,8.05c6.198,2.14,12.164,4.796,17.834,8.104c2.021,1.18,3.379,2.842,3.896,5.141
			C214.087,30.49,214.116,31.056,214.188,31.614z"/>
		<path fill-rule="evenodd" clip-rule="evenodd" fill="#EF476F" d="M138.513,50.286c-9.549,0.04-19.331,1.224-28.885,4.06
			c-1.557,0.462-3.119,0.492-4.645-0.125c-2.482-1.006-4.098-3.493-4.01-6.126c0.091-2.745,1.766-5.137,4.412-5.945
			c2.694-0.822,5.428-1.535,8.178-2.146c6.769-1.504,13.629-2.299,20.562-2.562c14.913-0.566,29.48,1.363,43.693,5.918
			c7.187,2.304,14.062,5.319,20.555,9.182c0.323,0.191,0.645,0.388,0.965,0.584c3.386,2.069,3.79,6.234,2.176,8.889
			c-1.848,3.034-5.688,3.978-8.879,2.178c-1.801-1.016-3.581-2.074-5.421-3.013c-8.438-4.301-17.386-7.09-26.671-8.847
			C153.396,50.979,146.18,50.318,138.513,50.286z"/>
		<path fill-rule="evenodd" clip-rule="evenodd" fill="#118AB2" d="M140.005,64.447c10.992,0.116,21.745,1.602,32.181,5.121
			c5.756,1.941,11.253,4.453,16.474,7.563c0.452,0.27,0.911,0.534,1.328,0.852c2.106,1.601,2.653,4.496,1.298,6.776
			c-1.314,2.212-4.104,3.102-6.49,2.048c-0.479-0.212-0.928-0.495-1.38-0.764c-8.848-5.245-18.396-8.493-28.544-10.047
			c-6.227-0.954-12.489-1.284-18.777-1.037c-8.134,0.319-16.166,1.448-24.112,3.207c-0.803,0.178-1.629,0.34-2.445,0.349
			c-2.46,0.026-4.537-1.719-4.97-4.085c-0.457-2.506,0.784-4.854,3.082-5.777c0.485-0.195,1.003-0.32,1.516-0.435
			c6.5-1.46,13.061-2.563,19.699-3.125C132.568,64.779,136.291,64.656,140.005,64.447z"/>
	</g>
	<circle fill="#06D6A0" cx="141.73" cy="141.73" r="9.375"/>
</svg>
